<svg xmlns="http://www.w3.org/2000/svg" width="36" height="36" fill="none"><g clip-path="url(#a)"><circle cx="19.638" cy="19.636" r="13.091" fill="#fff"/><path fill="#F39321" d="M2.524 8.742c.575-.803 1.11-1.634 1.757-2.387a18.139 18.139 0 014.04-3.513 18.099 18.099 0 014.36-2.038 17.782 17.782 0 017.37-.684c1.83.21 3.593.677 5.272 1.434 1.016.459 1.972 1.025 2.91 1.637 1.888 1.232 3.4 2.837 4.665 4.67 1.35 1.958 2.228 4.136 2.71 6.472.338 1.64.48 3.296.336 4.963-.18 2.055-.635 4.037-1.487 5.941-.72 1.61-1.61 3.09-2.748 4.426-1.114 1.306-2.37 2.45-3.814 3.392-.982.642-2.007 1.215-3.089 1.64-1.81.712-3.686 1.193-5.65 1.277-1.383.06-2.757.037-4.121-.206a19.322 19.322 0 01-3.434-.932c-1.087-.408-2.14-.892-3.11-1.504a18.32 18.32 0 01-3.783-3.183 17.89 17.89 0 01-3.04-4.578C.572 23.192.033 20.688 0 18.073c-.012-.983.1-1.959.231-2.932.01-.07 0-.141 0-.212.114-.072.104-.196.125-.304a18.22 18.22 0 011.447-4.396c.236-.499.561-.953.72-1.488zm21.005 9.655c.487-.26.95-.408 1.316-.735 1.41-1.261 1.786-4.23-.503-5.66-.713-.445-1.474-.775-2.294-1.112.136-1.1.575-2.128.717-3.254-.676-.168-1.31-.39-1.97-.462L20 10.296c-.505-.155-1.025-.14-1.501-.408.171-1.074.58-2.08.69-3.158-.694-.11-1.283-.38-1.957-.41l-.79 3.151c-1.337-.205-2.566-.666-3.915-.913-.297.665-.428 1.366-.547 2.113.44.104.822.195 1.205.284.966.224 1.23.753 1.002 1.599-.164.602-.311 1.208-.461 1.813-.54 2.177-1.076 4.354-1.62 6.53-.122.49-.427.649-.924.576-.49-.072-.951-.291-1.49-.275-.234.748-.7 1.408-.864 2.234l3.828.977c-.098 1.135-.568 2.173-.707 3.316l1.904.457c.422-1.048.52-2.15.912-3.234.474.244.999.173 1.462.48l-.759 3.14c.67.24 1.324.338 1.995.505l.789-3.163a.514.514 0 01.383-.043 9.9 9.9 0 003.182.16c.922-.102 1.74-.454 2.397-1.147.73-.77 1.097-1.713 1.273-2.727.144-.825.107-1.662-.377-2.393-.38-.573-.901-1.01-1.58-1.363zM15.922 22.7c1.298.323 2.595.668 3.953.42.724-.133 1.27-.503 1.49-1.232.207-.688.087-1.313-.423-1.857-.53-.565-1.212-.859-1.915-1.105-.84-.293-1.691-.56-2.609-.632l-1.041 4.238c.222.069.381.127.545.168zm4.585-5.994c.718-.103 1.313-.578 1.488-1.224.214-.79-.025-1.482-.664-1.954-.724-.534-1.559-.806-2.42-.995-.322-.07-.638-.258-1.026-.131-.31 1.256-.62 2.518-.94 3.822 1.227.31 2.357.653 3.562.482z"/></g><defs><clipPath id="a"><path fill="#fff" d="M0 0h36v36H0z"/></clipPath></defs></svg>