<svg width="17" height="17" viewBox="0 0 17 17" fill="none" xmlns="http://www.w3.org/2000/svg">
<g opacity="0.8">
<path d="M1.41663 4.25001C1.41663 3.87429 1.56588 3.51395 1.83156 3.24828C2.09723 2.9826 2.45757 2.83334 2.83329 2.83334H14.1666C14.5423 2.83334 14.9027 2.9826 15.1684 3.24828C15.434 3.51395 15.5833 3.87429 15.5833 4.25001V12.75C15.5833 13.1257 15.434 13.4861 15.1684 13.7517C14.9027 14.0174 14.5423 14.1667 14.1666 14.1667H2.83329C2.45757 14.1667 2.09723 14.0174 1.83156 13.7517C1.56588 13.4861 1.41663 13.1257 1.41663 12.75V4.25001Z" stroke="#5F5F5F" stroke-width="1.41667" stroke-linecap="round" stroke-linejoin="round"/>
<path d="M1.41663 5.66669L6.72983 9.9174C7.23225 10.3194 7.85652 10.5384 8.49996 10.5384C9.1434 10.5384 9.76767 10.3194 10.2701 9.9174L15.5833 5.66669" stroke="#5F5F5F" stroke-width="1.41667" stroke-linejoin="round"/>
</g>
</svg>
